Coordinates
version=1
nRows=14
nColumns=36
inDegrees=yes

Units are S.I. units (second, meters, Newtons, ...)
If the header above contains a line with 'inDegrees', this indicates whether rotational values are in degrees (yes) or radians (no).

endheader
time	pelvis_tilt	pelvis_list	pelvis_rotation	pelvis_tx	pelvis_ty	pelvis_tz	hip_flexion_r	hip_adduction_r	hip_rotation_r	knee_angle_r	knee_angle_r_beta	ankle_angle_r	subtalar_angle_r	mtp_angle_r	hip_flexion_l	hip_adduction_l	hip_rotation_l	knee_angle_l	knee_angle_l_beta	ankle_angle_l	subtalar_angle_l	mtp_angle_l	lumbar_extension	lumbar_bending	lumbar_rotation	arm_flex_r	arm_add_r	arm_rot_r	elbow_flex_r	pro_sup_r	arm_flex_l	arm_add_l	arm_rot_l	elbow_flex_l	pro_sup_l
      1.17000000	    -11.17432232	      5.35146522	      8.91479182	     -0.56425755	      1.05532103	     -0.57793238	     35.55756290	     -7.80829453	      3.85250595	     28.17030829	      0.49166463	      4.33437661	     -7.69241634	     -7.16000387	     40.89425161	      0.42600457	     -3.24390867	     54.54176634	      0.95193340	      1.77545570	      4.42230679	     -7.16000387	    -22.60071780	     -1.59273785	      7.14227847	    -65.97557229	    -27.77550012	   -101.99901538	    148.59648354	     99.87995952	     78.70781938	    -72.39467701	     65.57108792	    123.15545063	    100.96615559
      1.18000000	    -11.32793737	      5.54965856	      8.90381687	     -0.55358923	      1.03822796	     -0.57783576	     35.64992685	     -8.17777334	      3.73550254	     26.19398220	      0.45717123	      5.49074925	     -7.63830480	     -7.22009707	     41.48642497	      0.63213150	     -3.53881525	     52.00481398	      0.90765523	      1.87484717	      5.18688536	     -7.22009707	    -23.09376950	     -1.36967405	      6.65073121	    -67.10084063	    -25.78509870	   -101.31999492	    149.11065192	    104.90928842	     67.93079305	    -76.32895631	     56.46793515	    126.78250874	     99.48936159
      1.19000000	    -11.30328531	      5.89509623	      8.93214397	     -0.54316442	      1.02016933	     -0.57754506	     35.61628694	     -8.67451305	      3.66924041	     24.51603460	      0.42788552	      6.41285287	     -7.90464641	     -7.21819110	     41.90504030	      0.98283529	     -3.86561560	     49.51637908	      0.86422385	      2.09218805	      6.01907332	     -7.21819110	    -23.48356787	     -1.55201471	      7.46865523	    -68.43284394	    -22.18707443	   -100.37659784	    149.35113045	    105.73882713	     65.80615141	    -77.92404837	     57.26767805	    128.70528381	    100.07373037
      1.20000000	    -11.65595682	      5.83397215	      8.89212349	     -0.53192603	      1.00128046	     -0.57805357	     35.91124879	     -8.89425997	      3.06453056	     22.85561808	      0.39890579	      7.59792033	     -7.41093767	     -7.47797255	     42.73534428	      0.94455364	     -4.32104451	     47.10907413	      0.82220845	      3.01355757	      7.85624360	     -7.47797255	    -24.50188778	     -1.08652081	      3.23917857	    -67.21983787	    -25.01983935	    -95.94750131	    149.55205260	    111.31446498	    -10.83501375	    -81.17097571	    -18.46842998	    135.83764053	    100.07936216
      1.21000000	    -12.06428878	      5.77694572	      8.84806875	     -0.52104191	      0.98092753	     -0.57814721	     36.44654445	     -9.02450235	      2.68465896	     21.66428837	      0.37811316	      8.42286002	     -7.44391590	     -7.50284665	     43.80347861	      0.87942751	     -4.91135459	     45.08812670	      0.78693626	      3.90397033	      9.50851589	     -7.50284665	    -25.32446303	     -1.18369586	     -1.10190568	    -64.95587874	    -28.38315306	    -89.22058532	    149.61176016	    112.96525993	    -54.41949255	    -72.17251700	    -59.83540768	    142.15137732	    101.43690469
      1.22000000	    -12.47585239	      5.62050429	      8.80893564	     -0.51038251	      0.95944375	     -0.57832005	     37.14871503	     -9.02619169	      2.29862266	     20.91381927	      0.36501501	      8.96490427	     -7.77080081	     -7.50201749	     45.09663559	      0.69911707	     -5.58597318	     43.54108696	      0.75993533	      4.75697770	     11.10601672	     -7.50201749	    -26.02609044	     -1.40334506	     -5.54640421	    -61.74266793	    -32.20441247	    -80.88180658	    149.59871331	    113.71216019	    -66.76630694	    -59.92496388	    -69.72136868	    147.09956462	    104.97741982
      1.23000000	    -12.76261445	      5.47449264	      8.75039641	     -0.49996862	      0.93717792	     -0.57871397	     37.97717374	     -9.00654634	      2.09336925	     20.82407799	      0.36344872	      9.91625586	     -7.82155877	     -7.50155270	     46.44312392	      0.48045655	     -6.38372648	     42.47159069	      0.74126910	      5.30052917	     12.06916024	     -7.50155270	    -26.38338294	     -1.25691989	     -6.69138128	    -61.06893575	    -32.00778698	    -75.73471943	    149.61287905	    114.34852318	    -67.59769754	    -53.13406996	    -67.56864008	    148.59143131	    109.54307714
      1.24000000	    -12.88417823	      5.32298279	      8.62838922	     -0.48957955	      0.91424149	     -0.57908719	     38.80124402	     -8.91326825	      2.30848593	     21.14744621	      0.36909256	     11.13461538	     -7.70357701	     -7.50133731	     47.77463011	      0.15366412	     -7.26829560	     41.93048894	      0.73182509	      5.79769342	     12.56201214	     -7.50133731	    -26.82074278	     -0.92140853	     -6.58081384	    -61.12031424	    -30.42312645	    -71.70603469	    149.62788770	    114.99510481	    -66.19207973	    -48.46880560	    -62.80358017	    149.04948200	    111.79625107
      1.25000000	    -12.85524859	      5.12513822	      8.43669030	     -0.47927051	      0.89067604	     -0.57913313	     39.47677604	     -8.68057561	      2.53371734	     21.34498056	      0.37254019	      9.79435702	     -8.69740114	     -7.50119297	     49.09757424	     -0.29782975	     -8.07596253	     41.97527339	      0.73260673	      6.13712229	     12.59596532	     -7.50119297	    -27.43716597	     -0.55377785	     -6.14082600	    -60.88240657	    -28.76244764	    -67.31544318	    149.62161218	    115.17739113	    -64.24926406	    -44.41168788	    -57.70184209	    149.23053283	    113.13398876
      1.26000000	    -12.80608495	      4.71773534	      7.86761894	     -0.46994274	      0.86665447	     -0.57839270	     40.64950871	     -7.84130802	      2.60954868	     22.21820315	      0.38778080	      4.57288420	    -12.24436178	     -7.50106791	     50.65517217	     -1.21614425	     -8.86020092	     42.60590286	      0.74361329	      6.17035729	     12.97654587	     -7.50106791	    -28.22370377	     -0.11978315	     -5.04600032	    -60.09605365	    -27.01657176	    -63.22290364	    149.58197599	    115.17239453	    -61.65453430	    -40.95844771	    -52.38808562	    149.25938432	    114.14761966
      1.27000000	    -13.14869648	      4.05418258	      6.58268757	     -0.46261031	      0.84199715	     -0.57681051	     44.49055210	     -6.20640139	      2.59117843	     27.38854308	      0.47802025	      0.77318687	    -16.13088933	     -7.50090729	     52.82182010	     -2.79303389	     -9.52231634	     43.50270084	      0.75926536	      5.45739834	     13.50902562	     -7.50090729	    -28.79724587	      0.23428560	     -2.98785646	    -58.71804030	    -25.52489378	    -59.63818248	    149.49672418	    114.76504334	    -58.10674269	    -38.04911995	    -46.51714495	    149.18466084	    114.13462839
      1.28000000	    -13.94781800	      3.62928256	      4.79853121	     -0.45709334	      0.81649256	     -0.57560914	     51.75681506	     -4.45277716	      3.37052273	     38.67430547	      0.67499397	      3.11211960	    -16.87279213	     -7.50072589	     55.39372621	     -4.32872846	     -9.86318489	     44.41643859	      0.77521310	      4.02192267	     12.06406409	     -7.50072589	    -29.05288630	      0.16408794	     -0.47127889	    -56.85303227	    -24.51232415	    -56.88743493	    149.33146225	    114.18605037	    -53.76977533	    -35.57037204	    -40.53453113	    148.92323271	    113.87037492
      1.29000000	    -14.51061550	      3.10072225	      3.09653231	     -0.45220139	      0.79205775	     -0.57536795	     59.14962213	     -2.37790816	      5.16404211	     50.79068246	      0.88646464	      6.64832334	    -15.79795473	     -7.50051369	     57.99344625	     -5.81425176	     -9.44633951	     46.86448397	      0.81793955	      4.56996618	      9.58302370	     -7.50051369	    -29.69589693	      0.28080298	      1.85734005	    -54.09178065	    -24.41025520	    -54.23869227	    148.89669809	    113.49200338	    -48.87472845	    -33.02253218	    -34.79039405	    148.31040891	    113.31962702
      1.30000000	    -14.58309083	      1.86657153	      1.43664029	     -0.44757589	      0.77053118	     -0.57530753	     64.04454952	      0.20001012	      6.06317453	     58.98946188	      1.02956033	      7.30607256	    -16.03182715	     -7.50047819	     61.20920979	     -7.91264095	     -8.54581214	     52.90017265	      0.92328219	      8.30807356	      6.87815419	     -7.50047819	    -31.09387609	      0.96754512	      3.93041725	    -49.83360911	    -25.69667472	    -50.92984631	    147.49753885	    111.86600830	    -43.84669048	    -29.95898655	    -29.82891651	    147.24463798	    112.08714240
